<svg width="52" height="52" viewBox="0 0 52 52" fill="none" xmlns="http://www.w3.org/2000/svg">
<mask id="path-1-inside-1_247_773" fill="white">
<path fill-rule="evenodd" clip-rule="evenodd" d="M26 52C40.3594 52 52 40.3594 52 26C52 11.6406 40.3594 0 26 0C11.6406 0 0 11.6406 0 26C0 40.3594 11.6406 52 26 52ZM29.1421 8.32233L13.2322 24.2322C12.2559 25.2085 12.2559 26.7915 13.2322 27.7678L29.1421 43.6777C30.1184 44.654 31.7014 44.654 32.6777 43.6777C33.654 42.7014 33.654 41.1184 32.6777 40.1421L18.5355 26L32.6777 11.8579C33.654 10.8816 33.654 9.29864 32.6777 8.32233C31.7014 7.34602 30.1184 7.34602 29.1421 8.32233Z"/>
</mask>
<path fill-rule="evenodd" clip-rule="evenodd" d="M26 52C40.3594 52 52 40.3594 52 26C52 11.6406 40.3594 0 26 0C11.6406 0 0 11.6406 0 26C0 40.3594 11.6406 52 26 52ZM29.1421 8.32233L13.2322 24.2322C12.2559 25.2085 12.2559 26.7915 13.2322 27.7678L29.1421 43.6777C30.1184 44.654 31.7014 44.654 32.6777 43.6777C33.654 42.7014 33.654 41.1184 32.6777 40.1421L18.5355 26L32.6777 11.8579C33.654 10.8816 33.654 9.29864 32.6777 8.32233C31.7014 7.34602 30.1184 7.34602 29.1421 8.32233Z" fill="#383837"/>
<path d="M18.5355 26L15 22.4645L11.4645 26L15 29.5355L18.5355 26ZM47 26C47 37.598 37.598 47 26 47V57C43.1208 57 57 43.1208 57 26H47ZM26 5C37.598 5 47 14.402 47 26H57C57 8.87917 43.1208 -5 26 -5V5ZM5 26C5 14.402 14.402 5 26 5V-5C8.87917 -5 -5 8.87917 -5 26H5ZM26 47C14.402 47 5 37.598 5 26H-5C-5 43.1208 8.87917 57 26 57V47ZM16.7678 27.7678L32.6777 11.8579L25.6066 4.7868L9.6967 20.6967L16.7678 27.7678ZM16.7678 24.2322C17.7441 25.2085 17.7441 26.7915 16.7678 27.7678L9.6967 20.6967C6.76777 23.6256 6.76777 28.3744 9.6967 31.3033L16.7678 24.2322ZM32.6777 40.1421L16.7678 24.2322L9.6967 31.3033L25.6066 47.2132L32.6777 40.1421ZM29.1421 40.1421C30.1184 39.1658 31.7014 39.1658 32.6777 40.1421L25.6066 47.2132C28.5355 50.1421 33.2843 50.1421 36.2132 47.2132L29.1421 40.1421ZM29.1421 43.6777C28.1658 42.7014 28.1658 41.1184 29.1421 40.1421L36.2132 47.2132C39.1421 44.2843 39.1421 39.5355 36.2132 36.6066L29.1421 43.6777ZM15 29.5355L29.1421 43.6777L36.2132 36.6066L22.0711 22.4645L15 29.5355ZM29.1421 8.32233L15 22.4645L22.0711 29.5355L36.2132 15.3934L29.1421 8.32233ZM29.1421 11.8579C28.1658 10.8816 28.1658 9.29864 29.1421 8.32233L36.2132 15.3934C39.1421 12.4645 39.1421 7.71573 36.2132 4.7868L29.1421 11.8579ZM32.6777 11.8579C31.7014 12.8342 30.1184 12.8342 29.1421 11.8579L36.2132 4.7868C33.2843 1.85786 28.5355 1.85786 25.6066 4.7868L32.6777 11.8579Z" fill="#383837" mask="url(#path-1-inside-1_247_773)"/>
</svg>
