<svg width="84" height="26" viewBox="0 0 84 26" fill="none" xmlns="http://www.w3.org/2000/svg">
<path d="M12.744 24.056L10.152 21.584V15.68L12.744 13.328V24.056ZM12.672 1.76V12.488L10.08 10.16V4.232L12.672 1.76ZM30.2593 24.056L27.6673 21.584V15.68L30.2593 13.328V24.056ZM20.8273 14.192C20.2673 13.744 19.6993 13.304 19.1233 12.872L20.8273 11.6H27.3793L29.0593 12.872L27.3793 14.192H20.8273ZM17.9713 12.488V1.76L20.5633 4.088V10.04L17.9713 12.488ZM30.1873 1.76V12.488L27.5953 10.16V4.232L30.1873 1.76ZM36.2786 25.112L38.7506 22.52H44.6786L47.0066 25.112H36.2786ZM35.5586 13.328L38.1506 15.824V21.704L35.5586 24.056V13.328ZM47.7746 24.056L45.1826 21.584V15.68L47.7746 13.328V24.056ZM36.2546 0.727999H46.9826L44.6066 3.32H38.7266L36.2546 0.727999ZM35.4866 12.488V1.76L38.0786 4.088V10.04L35.4866 12.488ZM47.7026 1.76V12.488L45.1106 10.16V4.232L47.7026 1.76ZM49.5459 21.56H52.5699V24.632H49.5459V21.56ZM66.0006 24.056L63.4086 21.584V15.68L66.0006 13.328V24.056ZM65.9286 1.76V12.488L63.3366 10.16V4.232L65.9286 1.76ZM72.0199 25.112L74.4919 22.52H80.4199L82.7479 25.112H72.0199ZM83.5159 24.056L80.9239 21.584V15.68L83.5159 13.328V24.056ZM74.0839 14.192C73.5239 13.744 72.9559 13.304 72.3799 12.872L74.0839 11.6H80.6359L82.3159 12.872L80.6359 14.192H74.0839ZM71.9959 0.727999H82.7239L80.3479 3.32H74.4679L71.9959 0.727999ZM71.2279 12.488V1.76L73.8199 4.088V10.04L71.2279 12.488Z" fill="#E6DDAB"/>
</svg>
