<svg width="71" height="71" viewBox="0 0 71 71" fill="none" xmlns="http://www.w3.org/2000/svg">
<g clip-path="url(#clip0_9_1212)">
<path d="M35.5 0C15.9254 0 0.000488281 15.9252 0.000488281 35.5001C0.000488281 55.0751 15.9254 71 35.5 71C55.0747 71 70.9996 55.0751 70.9996 35.5001C70.9997 15.9252 55.0747 0 35.5 0ZM35.5 66.402C18.4607 66.402 4.59844 52.5395 4.59844 35.5001C4.59844 18.4605 18.4607 4.59795 35.5 4.59795C52.5391 4.59795 66.4017 18.4605 66.4017 35.5001C66.4017 52.5394 52.5392 66.402 35.5 66.402ZM47.5606 25.1454H47.8408V23.7884H48.3457V23.5488H47.0569V23.7884H47.5607L47.5606 25.1454ZM48.7927 23.9117H48.7978L49.2407 25.1454H49.4688L49.9116 23.9117H49.9179V25.1454H50.1809V23.5489H49.7942L49.3662 24.7977H49.3588L48.9205 23.5489H48.5275V25.1454H48.7928L48.7927 23.9117ZM40.7303 23.5474H23.2663L20.6166 27.8058H38.0604L40.7303 23.5474ZM44.2993 23.5881L33.6231 40.588H21.7808L24.5129 36.3261H31.6107L34.3219 32.0662H17.9132L15.2025 36.3261H19.0898L13.6964 44.8352H36.2045L44.5179 31.7244L47.5492 36.326H44.8159L42.2274 40.588H50.3213L53.1318 44.8352H58.2949L44.2993 23.5881Z" fill="#2E2E30"/>
</g>
<defs>
<clipPath id="clip0_9_1212">
<rect width="71" height="71" fill="white"/>
</clipPath>
</defs>
</svg>
