<svg width="95" height="95" viewBox="0 0 95 95" fill="none" xmlns="http://www.w3.org/2000/svg">
<path d="M87.0834 64.0854C87.0834 78.4937 78.4938 87.0833 64.0855 87.0833H59.3751C57.198 87.0833 55.4167 85.302 55.4167 83.125V60.2854C55.4167 59.2166 56.2876 58.3062 57.3563 58.3062L64.323 58.1875C64.8772 58.1479 65.3522 57.752 65.4709 57.1979L66.8563 49.6375C66.9751 48.925 66.4209 48.252 65.6688 48.252L57.2376 48.3708C56.1292 48.3708 55.2584 47.5 55.2188 46.4312L55.0605 36.7333C55.0605 36.1 55.5751 35.5458 56.248 35.5458L65.748 35.3875C66.4209 35.3875 66.9355 34.8729 66.9355 34.2L66.7772 24.6999C66.7772 24.027 66.2626 23.5125 65.5897 23.5125L54.9022 23.6708C48.3313 23.7896 43.1063 29.1729 43.2251 35.7437L43.423 46.6291C43.4626 47.7375 42.5917 48.6083 41.4834 48.6479L36.7334 48.727C36.0605 48.727 35.546 49.2416 35.546 49.9145L35.6647 57.4354C35.6647 58.1083 36.1792 58.6229 36.8522 58.6229L41.6022 58.5437C42.7105 58.5437 43.5813 59.4145 43.6209 60.4833L43.9772 83.0458C44.0167 85.2625 42.2355 87.0833 40.0188 87.0833H30.9147C16.5063 87.0833 7.91675 78.4937 7.91675 64.0458V30.9145C7.91675 16.5062 16.5063 7.91663 30.9147 7.91663H64.0855C78.4938 7.91663 87.0834 16.5062 87.0834 30.9145V64.0854Z" fill="#FAF5CC"/>
</svg>
