<svg width="79" height="41" viewBox="0 0 79 41" fill="none" xmlns="http://www.w3.org/2000/svg">
<path d="M59.2586 0.8125H19.75C16.4936 0.812037 13.2876 1.61422 10.4175 3.14763C7.54735 4.68104 5.1021 6.89809 3.29943 9.60141C1.49677 12.3047 0.392628 15.4104 0.0853132 18.642C-0.222002 21.8736 0.277044 25.1308 1.53802 28.1236C2.799 31.1165 4.78278 33.752 7.31275 35.7957C9.84272 37.8394 12.8404 39.2278 16.0388 39.8373C19.2373 40.4468 22.5373 40.2585 25.6451 39.2891C28.7529 38.3198 31.572 36.5994 33.8515 34.2812H45.1485C47.4277 36.5992 50.2464 38.3194 53.3538 39.2888C56.4612 40.2583 59.7608 40.4468 62.959 39.8377C66.1572 39.2287 69.1547 37.8408 71.6847 35.7978C74.2147 33.7547 76.1988 31.1198 77.4603 28.1276C78.7218 25.1354 79.2216 21.8787 78.9152 18.6474C78.6088 15.4161 77.5057 12.3104 75.7041 9.6068C73.9026 6.90319 71.4584 4.68552 68.5891 3.15119C65.7199 1.61686 62.5146 0.813457 59.2586 0.8125ZM30.6125 21.9766C30.6125 22.3682 30.4564 22.7437 30.1786 23.0207C29.9008 23.2976 29.5241 23.4531 29.1312 23.4531H22.7125V29.8516C22.7125 30.2432 22.5564 30.6187 22.2786 30.8957C22.0008 31.1726 21.6241 31.3281 21.2312 31.3281H18.2687C17.8759 31.3281 17.4991 31.1726 17.2213 30.8957C16.9435 30.6187 16.7875 30.2432 16.7875 29.8516V23.4531H10.3687C9.97589 23.4531 9.59912 23.2976 9.32134 23.0207C9.04355 22.7437 8.88749 22.3682 8.88749 21.9766V19.0234C8.88749 18.6318 9.04355 18.2563 9.32134 17.9794C9.59912 17.7024 9.97589 17.5469 10.3687 17.5469H16.7875V11.1484C16.7875 10.7568 16.9435 10.3813 17.2213 10.1044C17.4991 9.82744 17.8759 9.67188 18.2687 9.67188H21.2312C21.6241 9.67188 22.0008 9.82744 22.2786 10.1044C22.5564 10.3813 22.7125 10.7568 22.7125 11.1484V17.5469H29.1312C29.5241 17.5469 29.9008 17.7024 30.1786 17.9794C30.4564 18.2563 30.6125 18.6318 30.6125 19.0234V21.9766ZM57.275 31.3281C56.2984 31.3281 55.3438 31.0395 54.5319 30.4986C53.7199 29.9578 53.087 29.1891 52.7133 28.2898C52.3396 27.3904 52.2418 26.4008 52.4324 25.446C52.6229 24.4913 53.0931 23.6143 53.7836 22.926C54.4742 22.2376 55.3539 21.7689 56.3117 21.5789C57.2695 21.389 58.2623 21.4865 59.1645 21.859C60.0667 22.2316 60.8378 22.8624 61.3804 23.6718C61.9229 24.4812 62.2125 25.4328 62.2125 26.4062C62.2125 27.7116 61.6923 28.9635 60.7663 29.8865C59.8404 30.8096 58.5845 31.3281 57.275 31.3281ZM65.175 19.5156C64.1984 19.5156 63.2438 19.227 62.4319 18.6861C61.6199 18.1453 60.987 17.3766 60.6133 16.4773C60.2396 15.5779 60.1418 14.5883 60.3324 13.6335C60.5229 12.6788 60.9931 11.8018 61.6836 11.1135C62.3742 10.4251 63.2539 9.95636 64.2117 9.76645C65.1695 9.57654 66.1623 9.674 67.0645 10.0465C67.9667 10.4191 68.7378 11.0499 69.2804 11.8593C69.8229 12.6687 70.1125 13.6203 70.1125 14.5938C70.1125 15.8991 69.5923 17.151 68.6663 18.074C67.7404 18.9971 66.4845 19.5156 65.175 19.5156Z" fill="#383837"/>
</svg>
