<svg width="79" height="63" viewBox="0 0 79 63" fill="none" xmlns="http://www.w3.org/2000/svg">
<g clip-path="url(#clip0_190_987)">
<path d="M59.2585 11.8125H19.7499C16.4935 11.812 13.2875 12.6142 10.4174 14.1476C7.54726 15.681 5.102 17.8981 3.29934 20.6014C1.49668 23.3047 0.392537 26.4104 0.0852216 29.642C-0.222093 32.8736 0.276952 36.1308 1.53793 39.1236C2.79891 42.1165 4.78268 44.752 7.31265 46.7957C9.84262 48.8394 12.8403 50.2278 16.0387 50.8373C19.2372 51.4468 22.5372 51.2585 25.645 50.2891C28.7528 49.3198 31.5719 47.5994 33.8514 45.2812H45.1484C47.4276 47.5992 50.2463 49.3194 53.3537 50.2888C56.4611 51.2583 59.7608 51.4468 62.9589 50.8377C66.1571 50.2287 69.1546 48.8408 71.6846 46.7978C74.2146 44.7547 76.1987 42.1198 77.4602 39.1276C78.7217 36.1354 79.2215 32.8787 78.9151 29.6474C78.6087 26.4161 77.5056 23.3104 75.704 20.6068C73.9025 17.9032 71.4583 15.6855 68.5891 14.1512C65.7198 12.6169 62.5145 11.8135 59.2585 11.8125ZM30.6124 32.9766C30.6124 33.3682 30.4563 33.7437 30.1785 34.0207C29.9008 34.2976 29.524 34.4531 29.1311 34.4531H22.7124V40.8516C22.7124 41.2432 22.5563 41.6187 22.2785 41.8957C22.0008 42.1726 21.624 42.3281 21.2311 42.3281H18.2686C17.8758 42.3281 17.499 42.1726 17.2212 41.8957C16.9435 41.6187 16.7874 41.2432 16.7874 40.8516V34.4531H10.3686C9.97579 34.4531 9.59903 34.2976 9.32124 34.0207C9.04346 33.7437 8.8874 33.3682 8.8874 32.9766V30.0234C8.8874 29.6318 9.04346 29.2563 9.32124 28.9794C9.59903 28.7024 9.97579 28.5469 10.3686 28.5469H16.7874V22.1484C16.7874 21.7568 16.9435 21.3813 17.2212 21.1044C17.499 20.8274 17.8758 20.6719 18.2686 20.6719H21.2311C21.624 20.6719 22.0008 20.8274 22.2785 21.1044C22.5563 21.3813 22.7124 21.7568 22.7124 22.1484V28.5469H29.1311C29.524 28.5469 29.9008 28.7024 30.1785 28.9794C30.4563 29.2563 30.6124 29.6318 30.6124 30.0234V32.9766ZM57.2749 42.3281C56.2983 42.3281 55.3437 42.0395 54.5318 41.4986C53.7198 40.9578 53.0869 40.1891 52.7132 39.2898C52.3395 38.3904 52.2418 37.4008 52.4323 36.446C52.6228 35.4913 53.093 34.6143 53.7836 33.926C54.4741 33.2376 55.3539 32.7689 56.3116 32.5789C57.2694 32.389 58.2622 32.4865 59.1644 32.859C60.0666 33.2316 60.8377 33.8624 61.3803 34.6718C61.9228 35.4812 62.2124 36.4328 62.2124 37.4062C62.2124 38.7116 61.6922 39.9635 60.7662 40.8865C59.8403 41.8096 58.5844 42.3281 57.2749 42.3281ZM65.1749 30.5156C64.1983 30.5156 63.2437 30.227 62.4318 29.6861C61.6198 29.1453 60.9869 28.3766 60.6132 27.4773C60.2395 26.5779 60.1418 25.5883 60.3323 24.6335C60.5228 23.6788 60.993 22.8018 61.6836 22.1135C62.3741 21.4251 63.2539 20.9564 64.2116 20.7664C65.1694 20.5765 66.1622 20.674 67.0644 21.0465C67.9666 21.4191 68.7377 22.0499 69.2803 22.8593C69.8228 23.6687 70.1124 24.6203 70.1124 25.5938C70.1124 26.8991 69.5922 28.151 68.6662 29.074C67.7403 29.9971 66.4844 30.5156 65.1749 30.5156Z" fill="#E6DDAB"/>
</g>
<defs>
<clipPath id="clip0_190_987">
<rect width="79" height="63" fill="white"/>
</clipPath>
</defs>
</svg>
