<svg width="75" height="75" viewBox="0 0 75 75" fill="none" xmlns="http://www.w3.org/2000/svg">
<g clip-path="url(#clip0_18_29)">
<path d="M11.2501 0C5.01762 0 0 5.01762 0 11.2501V63.7499C0 69.9824 5.01762 75 11.2501 75H24.1705C24.2211 74.2645 24.5162 73.0957 25.9277 73.0957C27.832 73.0957 28.2715 72.2168 28.2715 71.3379L28.125 64.0137C17.7246 66.3574 15.5273 59.9121 15.5273 59.9121C13.7695 55.5176 11.4258 54.4922 11.4258 54.4922C7.91016 52.1484 11.5723 52.1484 11.5723 52.1484C15.3809 52.4414 17.4316 55.957 17.4316 55.957C20.6543 61.6699 26.0742 60.0586 28.2715 59.1797C28.5645 56.6895 29.5898 55.0781 30.6152 54.0527C22.2656 53.1738 13.623 49.9512 13.623 35.5957C13.623 31.4941 15.0879 28.125 17.4316 25.4883C16.9922 24.6094 15.8203 20.8008 17.8711 15.6738C17.8711 15.6738 20.9473 14.6484 28.125 19.4824C34.2773 17.7246 40.7227 17.7246 46.875 19.4824C54.0527 14.6484 57.1289 15.6738 57.1289 15.6738C59.1797 20.8008 58.0078 24.6094 57.5684 25.4883C59.9121 28.125 61.377 31.4941 61.377 35.5957C61.377 49.9512 52.5879 53.1738 44.2383 54.0527C45.7031 55.2246 46.875 57.5684 46.875 61.084L46.7285 71.3379C46.7285 72.2168 47.168 73.0957 49.0723 73.0957C50.4838 73.0957 50.7789 74.2645 50.8295 75H63.7499C69.9824 75 75 69.9824 75 63.7499V11.2501C75 5.01762 69.9824 0 63.7499 0H11.2501Z" fill="#FAF5CC"/>
</g>
<defs>
<clipPath id="clip0_18_29">
<rect width="75" height="75" fill="white"/>
</clipPath>
</defs>
</svg>
