<svg width="79" height="79" viewBox="0 0 79 79" fill="none" xmlns="http://www.w3.org/2000/svg">
<path d="M78.7456 23.3172C78.6973 20.0018 78.0831 16.7127 76.9074 13.6119C74.85 8.31694 70.6604 4.13 65.3566 2.08033C62.2902 0.928485 59.0482 0.310955 55.7668 0.240881C51.5465 0.052556 50.2085 0 39.4956 0C28.7827 0 27.4096 2.87349e-07 23.2201 0.240881C19.943 0.310955 16.7011 0.928485 13.6346 2.08033C8.3308 4.13 4.13688 8.31694 2.0838 13.6119C0.930031 16.6733 0.307086 19.9099 0.245669 23.1815C0.0570302 27.399 0 28.7348 0 39.4299C0 50.125 -4.12112e-08 51.4915 0.245669 55.6784C0.311473 58.9544 0.930031 62.1866 2.0838 65.2567C4.14127 70.5473 8.3308 74.7342 13.639 76.7839C16.6923 77.9752 19.9343 78.6496 23.2245 78.7547C27.4491 78.9431 28.7871 79 39.5 79C50.2129 79 51.586 79 55.7755 78.7547C59.0526 78.689 62.2945 78.0715 65.3654 76.9197C70.6692 74.8656 74.8587 70.6787 76.9162 65.3881C78.07 62.3223 78.6885 59.0902 78.7543 55.8098C78.943 51.5966 79 50.2608 79 39.5613C78.9912 28.8662 78.9912 27.5085 78.7456 23.3172ZM39.4693 59.6551C28.2651 59.6551 19.1885 50.5936 19.1885 39.408C19.1885 28.2224 28.2651 19.1609 39.4693 19.1609C50.6648 19.1609 59.7501 28.2224 59.7501 39.408C59.7501 50.5936 50.6648 59.6551 39.4693 59.6551ZM60.5573 23.1333C57.9383 23.1333 55.8282 21.0223 55.8282 18.412C55.8282 15.8018 57.9383 13.6908 60.5573 13.6908C63.1675 13.6908 65.282 15.8018 65.282 18.412C65.282 21.0223 63.1675 23.1333 60.5573 23.1333Z" fill="#FAF5CC"/>
<path d="M39.4691 52.5603C46.7449 52.5603 52.6431 46.6719 52.6431 39.4082C52.6431 32.1445 46.7449 26.2561 39.4691 26.2561C32.1933 26.2561 26.2951 32.1445 26.2951 39.4082C26.2951 46.6719 32.1933 52.5603 39.4691 52.5603Z" fill="#FAF5CC"/>
</svg>
