<svg width="62" height="62" viewBox="0 0 62 62" fill="none" xmlns="http://www.w3.org/2000/svg">
<path d="M61.084 18.1016C61.0466 15.5278 60.5701 12.9744 59.6581 10.5672C58.0621 6.4566 54.8122 3.2062 50.698 1.615C48.3193 0.7208 45.8045 0.2414 43.259 0.187C39.9853 0.0408002 38.9474 0 30.6373 0C22.3271 0 21.262 2.23517e-07 18.0121 0.187C15.4701 0.2414 12.9552 0.7208 10.5765 1.615C6.46231 3.2062 3.20904 6.4566 1.61643 10.5672C0.721437 12.9438 0.23821 15.4564 0.190568 17.9962C0.0442391 21.2704 0 22.3074 0 30.6102C0 38.913 -2.98023e-08 39.9738 0.190568 43.2242C0.241613 45.7674 0.721437 48.2766 1.61643 50.66C3.21244 54.7672 6.46231 58.0176 10.5799 59.6088C12.9484 60.5336 15.4633 61.0572 18.0155 61.1388C21.2926 61.285 22.3305 61.3292 30.6407 61.3292C38.9508 61.3292 40.016 61.3292 43.2658 61.1388C45.8079 61.0878 48.3227 60.6084 50.7048 59.7142C54.819 58.1196 58.0689 54.8692 59.6649 50.762C60.5599 48.382 61.0397 45.8728 61.0908 43.3262C61.2371 40.0554 61.2814 39.0184 61.2814 30.7122C61.2745 22.4094 61.2746 21.3554 61.084 18.1016ZM30.6169 46.3114C21.9256 46.3114 14.8848 39.2768 14.8848 30.5932C14.8848 21.9096 21.9256 14.875 30.6169 14.875C39.3013 14.875 46.349 21.9096 46.349 30.5932C46.349 39.2768 39.3013 46.3114 30.6169 46.3114ZM46.9751 17.9588C44.9435 17.9588 43.3067 16.32 43.3067 14.2936C43.3067 12.2672 44.9435 10.6284 46.9751 10.6284C48.9999 10.6284 50.6402 12.2672 50.6402 14.2936C50.6402 16.32 48.9999 17.9588 46.9751 17.9588Z" fill="#BEBEC9"/>
<path d="M30.6167 40.8035C36.2606 40.8035 40.8359 36.2322 40.8359 30.5933C40.8359 24.9543 36.2606 20.3831 30.6167 20.3831C24.9728 20.3831 20.3975 24.9543 20.3975 30.5933C20.3975 36.2322 24.9728 40.8035 30.6167 40.8035Z" fill="#BEBEC9"/>
</svg>
