<svg width="79" height="79" viewBox="0 0 79 79" fill="none" xmlns="http://www.w3.org/2000/svg">
<path d="M58.9343 0.584717C61.5986 0.584717 64.1079 1.09496 66.4625 2.11546C68.8168 3.13595 70.8769 4.52747 72.6428 6.29017C74.4087 8.05288 75.8028 10.1093 76.8251 12.4595C77.8474 14.8098 78.3586 17.3146 78.3586 19.974V58.7526C78.3586 61.4121 77.8474 63.9325 76.8251 66.3136C75.8028 68.6947 74.4087 70.7666 72.6428 72.5293C70.8769 74.2919 68.8168 75.6836 66.4625 76.704C64.1079 77.7245 61.5986 78.2347 58.9343 78.2347H19.9929C17.3286 78.2347 14.8192 77.7245 12.4648 76.704C10.1103 75.6836 8.05019 74.2919 6.28435 72.5293C4.51851 70.7666 3.12442 68.6947 2.10209 66.3136C1.07977 63.9325 0.568604 61.4121 0.568604 58.7526V19.974C0.568604 17.3146 1.07977 14.8098 2.10209 12.4595C3.12442 10.1093 4.51851 8.05288 6.28435 6.29017C8.05019 4.52747 10.1103 3.13595 12.4648 2.11546C14.8192 1.09496 17.3286 0.584717 19.9929 0.584717H58.9343ZM27.335 29.7151H17.5764V61.2575H27.335V29.7151ZM22.5022 27.2102C23.8033 27.2102 24.9341 26.7464 25.8945 25.8187C26.8549 24.891 27.335 23.7468 27.335 22.3861C27.335 21.0254 26.8549 19.8812 25.8945 18.9536C24.9341 18.0258 23.8033 17.5619 22.5022 17.5619C21.1391 17.5619 19.9773 18.0258 19.017 18.9536C18.0567 19.8812 17.5764 21.0254 17.5764 22.3861C17.5764 23.7468 18.0567 24.891 19.017 25.8187C19.9773 26.7464 21.1391 27.2102 22.5022 27.2102ZM61.3507 42.9815C61.3507 40.7549 60.7312 38.5748 59.4919 36.4411C58.2527 34.3073 56.6419 32.6838 54.6591 31.5705C52.8623 30.5809 50.7712 30.0552 48.3858 29.9934C46.0003 29.9315 43.8472 30.3336 41.9265 31.1994V29.7151H32.1679V61.2575H41.9265V41.9609L45.9229 40.0128C46.4185 39.7654 47.1001 39.6416 47.9675 39.6416C48.8349 39.6416 49.4855 39.7963 49.9193 40.1055C50.291 40.291 50.6628 40.6931 51.0345 41.3115C51.4062 41.93 51.5921 42.4867 51.5921 42.9815V61.2575H61.3507V42.9815Z" fill="#BEBEC9"/>
</svg>
