<svg width="79" height="79" viewBox="0 0 79 79" fill="none" xmlns="http://www.w3.org/2000/svg">
<path d="M58.9247 0.462891C61.589 0.462891 64.0984 0.973145 66.4529 1.99365C68.8074 3.01416 70.8676 4.40576 72.6335 6.16846C74.3994 7.93115 75.7935 9.98763 76.8158 12.3379C77.8382 14.6882 78.3494 17.193 78.3494 19.8525V58.6318C78.3494 61.2913 77.8382 63.8117 76.8158 66.1929C75.7935 68.5741 74.3994 70.646 72.6335 72.4087C70.8676 74.1714 68.8074 75.563 66.4529 76.5835C64.0984 77.604 61.589 78.1143 58.9247 78.1143H19.9823C17.318 78.1143 14.8086 77.604 12.4541 76.5835C10.0996 75.563 8.03938 74.1714 6.2735 72.4087C4.50762 70.646 3.1135 68.5741 2.09115 66.1929C1.06879 63.8117 0.557617 61.2913 0.557617 58.6318V19.8525C0.557617 17.193 1.06879 14.6882 2.09115 12.3379C3.1135 9.98763 4.50762 7.93115 6.2735 6.16846C8.03938 4.40576 10.0996 3.01416 12.4541 1.99365C14.8086 0.973145 17.318 0.462891 19.9823 0.462891H58.9247ZM27.3247 29.5938H17.5659V61.1367H27.3247V29.5938ZM22.4917 27.0889C23.7929 27.0889 24.9237 26.625 25.8841 25.6973C26.8445 24.7695 27.3247 23.6253 27.3247 22.2646C27.3247 20.904 26.8445 19.7598 25.8841 18.832C24.9237 17.9043 23.7929 17.4404 22.4917 17.4404C21.1286 17.4404 19.9668 17.9043 19.0064 18.832C18.046 19.7598 17.5659 20.904 17.5659 22.2646C17.5659 23.6253 18.046 24.7695 19.0064 25.6973C19.9668 26.625 21.1286 27.0889 22.4917 27.0889ZM61.3411 42.8604C61.3411 40.6338 60.7215 38.4536 59.4823 36.3198C58.2431 34.186 56.6321 32.5625 54.6494 31.4492C52.8525 30.4596 50.7613 29.9339 48.3759 29.8721C45.9904 29.8102 43.8372 30.2122 41.9164 31.0781V29.5938H32.1576V61.1367H41.9164V41.8398L45.9129 39.8916C46.4086 39.6442 47.0902 39.5205 47.9576 39.5205C48.8251 39.5205 49.4757 39.6751 49.9094 39.9844C50.2811 40.1699 50.6529 40.5719 51.0247 41.1904C51.3964 41.8089 51.5823 42.3656 51.5823 42.8604V61.1367H61.3411V42.8604Z" fill="#FAF5CC"/>
</svg>
