<svg width="58" height="58" viewBox="0 0 58 58" fill="none" xmlns="http://www.w3.org/2000/svg">
<path fill-rule="evenodd" clip-rule="evenodd" d="M16.6011 0.509277C7.76452 0.509277 0.601074 7.67273 0.601074 16.5093V41.5556C0.601074 50.3921 7.76452 57.5556 16.6011 57.5556H41.4685C50.3051 57.5556 57.4685 50.3921 57.4685 41.5556V16.5093C57.4685 7.67272 50.3051 0.509277 41.4685 0.509277H16.6011ZM30.4501 9.15265H27.6191V16.2526H30.4501V9.15265ZM37.0846 18.9497L42.0472 13.9714L44.0489 15.9794L39.0863 20.9576L37.0846 18.9497ZM48.8522 27.6125H41.7745V30.4524H48.8522V27.6125ZM37.0846 39.1152L39.0863 37.1072L44.0489 42.0854L42.0472 44.0934L37.0846 39.1152ZM30.4502 41.8123H27.6191V48.9122H30.4502V41.8123ZM14.0209 42.0854L18.9835 37.1073L20.9852 39.1152L16.0225 44.0934L14.0209 42.0854ZM16.2948 27.6125H9.21713V30.4524H16.2948V27.6125ZM14.0209 15.9794L16.0225 13.9714L20.9852 18.9497L18.9835 20.9576L14.0209 15.9794ZM32.1805 24.3097C31.2494 23.6856 30.1547 23.3525 29.0348 23.3525C27.5337 23.3542 26.0944 23.9532 25.0329 25.018C23.9715 26.0828 23.3744 27.5265 23.3727 29.0325C23.3727 30.1558 23.7048 31.254 24.327 32.1881C24.9491 33.1221 25.8334 33.8501 26.868 34.28C27.9026 34.7099 29.0411 34.8224 30.1395 34.6033C31.2378 34.384 32.2467 33.8431 33.0386 33.0488C33.8305 32.2544 34.3697 31.2423 34.5882 30.1405C34.8066 29.0388 34.6945 27.8967 34.266 26.8588C33.8374 25.8209 33.1117 24.9339 32.1805 24.3097ZM24.3163 21.9484C25.713 21.0122 27.355 20.5125 29.0348 20.5125C31.2874 20.5125 33.4477 21.4102 35.0404 23.0079C36.6332 24.6058 37.5281 26.7728 37.5281 29.0325C37.5281 30.7175 37.0299 32.3647 36.0967 33.7659C35.1635 35.167 33.837 36.2589 32.285 36.9038C30.7331 37.5487 29.0254 37.7173 27.3779 37.3887C25.7304 37.0599 24.217 36.2485 23.0292 35.0569C21.8414 33.8654 21.0326 32.3473 20.7048 30.6946C20.3771 29.0419 20.5453 27.3288 21.1882 25.772C21.831 24.2152 22.9196 22.8846 24.3163 21.9484Z" fill="#FAF5CC"/>
</svg>
