<svg width="63" height="34" viewBox="0 0 63 34" fill="none" xmlns="http://www.w3.org/2000/svg">
<path d="M8.18098 3.76562C7.16535 3.98438 6.22785 4.17969 5.36848 4.35156C4.99348 4.42969 4.61848 4.5 4.24348 4.5625C3.8841 4.625 3.54035 4.6875 3.21223 4.75C2.8841 4.79688 2.58723 4.83594 2.3216 4.86719C2.0716 4.89844 1.8841 4.91406 1.7591 4.91406C1.49348 4.91406 1.26691 4.86719 1.07941 4.77344C0.907539 4.66406 0.821602 4.45312 0.821602 4.14062V1.51562C0.821602 1.21875 0.946602 0.953125 1.1966 0.71875C1.4466 0.46875 1.83723 0.34375 2.36848 0.34375H31.4544C31.9857 0.34375 32.3763 0.46875 32.6263 0.71875C32.8763 0.953125 33.0013 1.21875 33.0013 1.51562V4.14062C33.0013 4.45312 32.9075 4.66406 32.72 4.77344C32.5482 4.86719 32.3294 4.91406 32.0638 4.91406C31.9232 4.91406 31.7279 4.89844 31.4779 4.86719C31.2279 4.83594 30.9388 4.79688 30.6107 4.75C30.2825 4.6875 29.931 4.625 29.556 4.5625C29.1966 4.5 28.8294 4.42969 28.4544 4.35156C27.595 4.17969 26.6575 3.98438 25.6419 3.76562V30.7891C25.6419 31.3203 25.595 31.7891 25.5013 32.1953C25.4075 32.5859 25.2279 32.9219 24.9622 33.2031C24.7122 33.4688 24.3607 33.6719 23.9075 33.8125C23.4544 33.9375 22.8763 34 22.1732 34H11.72C10.9857 34 10.3841 33.9297 9.91535 33.7891C9.46223 33.6484 9.10285 33.4453 8.83723 33.1797C8.58723 32.9141 8.41535 32.5781 8.3216 32.1719C8.22785 31.7656 8.18098 31.2891 8.18098 30.7422V3.76562ZM37.9616 3.76562C36.946 3.98438 36.0085 4.17969 35.1491 4.35156C34.7741 4.42969 34.3991 4.5 34.0241 4.5625C33.6647 4.625 33.321 4.6875 32.9929 4.75C32.6647 4.79688 32.3679 4.83594 32.1022 4.86719C31.8522 4.89844 31.6647 4.91406 31.5397 4.91406C31.2741 4.91406 31.0475 4.86719 30.86 4.77344C30.6882 4.66406 30.6022 4.45312 30.6022 4.14062V1.51562C30.6022 1.21875 30.7272 0.953125 30.9772 0.71875C31.2272 0.46875 31.6179 0.34375 32.1491 0.34375H61.235C61.7663 0.34375 62.1569 0.46875 62.4069 0.71875C62.6569 0.953125 62.7819 1.21875 62.7819 1.51562V4.14062C62.7819 4.45312 62.6882 4.66406 62.5007 4.77344C62.3288 4.86719 62.11 4.91406 61.8444 4.91406C61.7038 4.91406 61.5085 4.89844 61.2585 4.86719C61.0085 4.83594 60.7194 4.79688 60.3913 4.75C60.0632 4.6875 59.7116 4.625 59.3366 4.5625C58.9772 4.5 58.61 4.42969 58.235 4.35156C57.3757 4.17969 56.4382 3.98438 55.4225 3.76562V30.7891C55.4225 31.3203 55.3757 31.7891 55.2819 32.1953C55.1882 32.5859 55.0085 32.9219 54.7429 33.2031C54.4929 33.4688 54.1413 33.6719 53.6882 33.8125C53.235 33.9375 52.6569 34 51.9538 34H41.5007C40.7663 34 40.1647 33.9297 39.696 33.7891C39.2429 33.6484 38.8835 33.4453 38.6179 33.1797C38.3679 32.9141 38.196 32.5781 38.1022 32.1719C38.0085 31.7656 37.9616 31.2891 37.9616 30.7422V3.76562Z" fill="#FAF5CC"/>
</svg>
