<svg width="56" height="56" viewBox="0 0 56 56" fill="none" xmlns="http://www.w3.org/2000/svg">
<path fill-rule="evenodd" clip-rule="evenodd" d="M10 0C4.47716 0 0 4.47717 0 10V46C0 51.5228 4.47716 56 10 56H46C51.5229 56 56 51.5228 56 46V10C56 4.47717 51.5229 0 46 0H10ZM8.23199 26.744L5.28799 31H8.008L9.576 28.488L11.16 31H13.736L10.888 26.792L13.864 22.504H11.16L9.56 25.048L8.008 22.504H5.28799L8.23199 26.744ZM14.9402 24.712C14.8123 25.2773 14.7482 25.9973 14.7482 26.872C14.7482 27.4907 14.7856 28.0294 14.8602 28.488C14.9456 28.936 15.0789 29.3307 15.2603 29.672C15.4416 30.0027 15.6816 30.2693 15.9803 30.472C16.2896 30.6747 16.6576 30.8293 17.0842 30.936C17.5216 31.032 18.0336 31.08 18.6203 31.08C20.1029 31.08 21.1163 30.776 21.6602 30.168C22.2149 29.56 22.4922 28.4613 22.4922 26.872C22.4922 25.1866 22.2096 24.024 21.6443 23.384C21.0896 22.744 20.0816 22.424 18.6203 22.424C17.8842 22.424 17.2762 22.4933 16.7962 22.632C16.3269 22.7707 15.9323 23.0107 15.6122 23.352C15.2923 23.6934 15.0683 24.1467 14.9402 24.712ZM17.0683 28.168C17.0149 27.848 16.9883 27.416 16.9883 26.872C16.9883 26.4667 16.9936 26.1253 17.0043 25.848C17.0256 25.5707 17.0629 25.3307 17.1163 25.128C17.1696 24.9254 17.2283 24.7707 17.2923 24.664C17.3669 24.5467 17.4736 24.456 17.6122 24.392C17.7509 24.3173 17.8949 24.2693 18.0443 24.248C18.1936 24.2267 18.3856 24.216 18.6203 24.216C18.9082 24.216 19.1376 24.2373 19.3083 24.28C19.4789 24.312 19.6336 24.376 19.7722 24.472C19.9109 24.5573 20.0123 24.7067 20.0762 24.92C20.1402 25.1227 20.1829 25.3787 20.2043 25.688C20.2363 25.9867 20.2522 26.3813 20.2522 26.872C20.2522 27.3307 20.2363 27.704 20.2043 27.992C20.1723 28.2693 20.1189 28.4987 20.0443 28.68C19.9803 28.8613 19.8736 28.9947 19.7242 29.08C19.5856 29.1653 19.4362 29.2187 19.2762 29.24C19.1774 29.2542 19.0482 29.2635 18.8886 29.2683C18.8071 29.2708 18.7176 29.272 18.6203 29.272C18.2896 29.272 18.0336 29.2507 17.8522 29.208C17.6709 29.1653 17.5056 29.064 17.3562 28.904C17.2176 28.7333 17.1216 28.488 17.0683 28.168ZM23.9094 28.424C23.7494 28.6907 23.6694 29.0053 23.6694 29.368C23.6694 29.56 23.6907 29.7466 23.7334 29.928C23.776 30.0987 23.8347 30.2534 23.9094 30.392C23.9947 30.5306 24.0854 30.6533 24.1814 30.76C24.2774 30.856 24.384 30.936 24.5014 31L23.7494 31.784V32.856C23.7494 33.4 23.8667 33.8586 24.1014 34.232C24.336 34.616 24.6454 34.8933 25.0294 35.064C25.424 35.2347 25.8827 35.32 26.4054 35.32H28.8054C29.0614 35.32 29.296 35.2986 29.5094 35.256C29.7334 35.224 29.9307 35.1707 30.1014 35.096C30.272 35.032 30.4267 34.952 30.5654 34.856C30.704 34.7707 30.8214 34.6693 30.9174 34.552C31.0134 34.4347 31.0987 34.3066 31.1734 34.168C31.248 34.04 31.3014 33.9013 31.3334 33.752C31.376 33.6027 31.408 33.4533 31.4294 33.304C31.4507 33.1653 31.4614 33.016 31.4614 32.856V31.944C31.4614 31.1013 31.2374 30.472 30.7894 30.056C30.352 29.6293 29.7387 29.416 28.9494 29.416H26.3414C26.1387 29.416 25.9787 29.3893 25.8614 29.336C25.7547 29.272 25.7014 29.1547 25.7014 28.984C25.7014 28.8773 25.7387 28.7974 25.8134 28.744C25.8987 28.68 25.9787 28.6426 26.0534 28.632C26.0968 28.6258 26.1476 28.6214 26.2055 28.6188C26.2471 28.6169 26.2924 28.616 26.3414 28.616H28.3094C28.5974 28.616 28.864 28.5947 29.1094 28.552C29.3654 28.4987 29.584 28.4293 29.7654 28.344C29.9574 28.2587 30.128 28.1573 30.2774 28.04C30.4267 27.9227 30.5547 27.7947 30.6614 27.656C30.768 27.5067 30.8534 27.3574 30.9174 27.208C30.992 27.0587 31.0507 26.8987 31.0934 26.728C31.1159 26.638 31.1354 26.551 31.152 26.4669C31.1668 26.3916 31.1793 26.3186 31.1894 26.248C31.2107 26.088 31.2214 25.928 31.2214 25.768C31.2214 25.64 31.216 25.5226 31.2054 25.416C31.1947 25.2986 31.184 25.2026 31.1734 25.128C31.1734 25.0427 31.1627 24.9573 31.1414 24.872C31.1352 24.8225 31.129 24.7802 31.1228 24.7451C31.1183 24.7196 31.1139 24.6979 31.1094 24.68C31.1037 24.6572 31.095 24.6299 31.0832 24.598C31.0729 24.5701 31.0603 24.5388 31.0454 24.504C31.024 24.4293 31.008 24.3867 30.9974 24.376C30.9974 24.3547 30.9814 24.3066 30.9494 24.232L30.9014 24.104L31.8454 23.816V22.472H26.6774C24.7147 22.472 23.7334 23.48 23.7334 25.496V25.832C23.7388 25.886 23.7442 25.9415 23.7496 25.9983C23.7549 26.0536 23.7601 26.1102 23.7654 26.168C23.7867 26.2747 23.808 26.3867 23.8294 26.504L23.9254 26.824L24.0534 27.144C24.082 27.1956 24.1107 27.2457 24.1394 27.2943C24.1641 27.336 24.1887 27.3766 24.2134 27.416C24.2774 27.5013 24.3467 27.5814 24.4214 27.656C24.496 27.7307 24.576 27.7947 24.6614 27.848C24.3307 27.9547 24.08 28.1467 23.9094 28.424ZM26.0694 33.08C26.0267 32.952 26.0054 32.7867 26.0054 32.584V31.176L26.6774 31.224H28.4054C28.4494 31.224 28.4916 31.2258 28.5319 31.2296C28.5599 31.2321 28.5871 31.2356 28.6134 31.24C28.6774 31.2507 28.736 31.2667 28.7894 31.288C28.8427 31.3093 28.8907 31.3307 28.9334 31.352C28.976 31.3734 29.0134 31.4 29.0454 31.432C29.0774 31.4747 29.104 31.512 29.1254 31.544C29.1574 31.5867 29.1787 31.6293 29.1894 31.672L29.2214 31.832C29.2291 31.8706 29.234 31.912 29.2362 31.9563C29.237 31.9731 29.2374 31.9904 29.2374 32.008V32.632C29.2374 32.7707 29.2267 32.888 29.2054 32.984C29.184 33.08 29.1414 33.1707 29.0774 33.256C29.024 33.3413 28.9334 33.4053 28.8054 33.448C28.688 33.5013 28.528 33.528 28.3254 33.528H27.0134C26.8427 33.528 26.704 33.5173 26.5974 33.496C26.5014 33.4747 26.4 33.432 26.2934 33.368C26.1974 33.304 26.1227 33.208 26.0694 33.08ZM26.9974 26.808C26.3147 26.808 25.9734 26.3707 25.9734 25.496C25.9734 25.3146 25.984 25.16 26.0054 25.032C26.0374 24.904 26.0854 24.7813 26.1494 24.664C26.224 24.536 26.3307 24.44 26.4694 24.376C26.6187 24.3013 26.8054 24.264 27.0294 24.264H27.8774C28.272 24.264 28.5494 24.36 28.7094 24.552C28.88 24.7333 28.9707 25.048 28.9814 25.496C28.992 26.3707 28.6294 26.808 27.8934 26.808H26.9974ZM32.6545 19.832V21.24C32.6545 21.3146 32.6705 21.384 32.7025 21.448C32.7345 21.5013 32.7772 21.544 32.8305 21.576C32.8945 21.5974 32.9638 21.608 33.0385 21.608H34.7185C34.8358 21.608 34.9212 21.576 34.9745 21.512C35.0385 21.448 35.0705 21.3574 35.0705 21.24V19.832C35.0705 19.5547 34.9532 19.416 34.7185 19.416H33.0385C32.7825 19.416 32.6545 19.5547 32.6545 19.832ZM32.7345 22.504V31H34.9745V22.504H32.7345ZM35.9275 22.952V24.2H37.3035V27.96C37.3035 29.0374 37.4848 29.816 37.8475 30.296C38.2102 30.7653 38.7222 31 39.3835 31H41.3355V29.624C41.2608 29.624 40.9035 29.512 40.2635 29.288C40.1035 29.224 39.9755 29.1494 39.8795 29.064C39.7835 28.968 39.7035 28.8027 39.6395 28.568C39.5755 28.3227 39.5435 28.0027 39.5435 27.608V24.2H41.4475V22.488H39.5435V20.12H37.6715L37.3035 22.488L35.9275 22.952ZM42.5652 24.712C42.4373 25.2773 42.3732 25.9973 42.3732 26.872C42.3732 27.4907 42.4106 28.0294 42.4852 28.488C42.5706 28.936 42.7039 29.3307 42.8853 29.672C43.0666 30.0027 43.3066 30.2693 43.6053 30.472C43.9146 30.6747 44.2826 30.8293 44.7092 30.936C45.1466 31.032 45.6586 31.08 46.2453 31.08C47.7279 31.08 48.7412 30.776 49.2852 30.168C49.8399 29.56 50.1172 28.4613 50.1172 26.872C50.1172 25.1866 49.8346 24.024 49.2692 23.384C48.7146 22.744 47.7066 22.424 46.2453 22.424C45.5092 22.424 44.9012 22.4933 44.4212 22.632C43.9519 22.7707 43.5573 23.0107 43.2372 23.352C42.9173 23.6934 42.6933 24.1467 42.5652 24.712ZM44.6933 28.168C44.6399 27.848 44.6133 27.416 44.6133 26.872C44.6133 26.4667 44.6186 26.1253 44.6293 25.848C44.6506 25.5707 44.6879 25.3307 44.7413 25.128C44.7946 24.9254 44.8533 24.7707 44.9173 24.664C44.9919 24.5467 45.0986 24.456 45.2372 24.392C45.3759 24.3173 45.5199 24.2693 45.6693 24.248C45.8186 24.2267 46.0106 24.216 46.2453 24.216C46.5332 24.216 46.7626 24.2373 46.9333 24.28C47.1039 24.312 47.2586 24.376 47.3972 24.472C47.5359 24.5573 47.6373 24.7067 47.7012 24.92C47.7652 25.1227 47.8079 25.3787 47.8293 25.688C47.8613 25.9867 47.8772 26.3813 47.8772 26.872C47.8772 27.3307 47.8613 27.704 47.8293 27.992C47.7973 28.2693 47.7439 28.4987 47.6693 28.68C47.6053 28.8613 47.4986 28.9947 47.3492 29.08C47.2106 29.1653 47.0612 29.2187 46.9012 29.24C46.7519 29.2614 46.5332 29.272 46.2453 29.272C45.9146 29.272 45.6586 29.2507 45.4772 29.208C45.2959 29.1653 45.1306 29.064 44.9812 28.904C44.8426 28.7333 44.7466 28.488 44.6933 28.168Z" fill="#E6DDAB"/>
</svg>
