<svg width="57" height="58" viewBox="0 0 57 58" fill="none" xmlns="http://www.w3.org/2000/svg">
<path fill-rule="evenodd" clip-rule="evenodd" d="M12.063 0.573975C5.43557 0.573975 0.0629883 5.94657 0.0629883 12.574V45.6203C0.0629883 52.2477 5.43558 57.6203 12.063 57.6203H44.9304C51.5579 57.6203 56.9304 52.2477 56.9304 45.6203V12.574C56.9304 5.94656 51.5579 0.573975 44.9304 0.573975H12.063ZM33.882 15.5918C33.882 17.2053 33.1768 18.6536 32.0588 19.6434H32.5357C34.0228 19.6434 35.2283 20.8527 35.2283 22.3445C35.2283 23.8363 34.0228 25.0455 32.5357 25.0455H31.8626V30.4476C31.8626 30.4476 31.8626 31.1229 32.5357 31.7982L35.2621 34.5331C37.2718 36.5492 36.9572 39.5341 35.2416 41.2519C37.4661 41.2592 39.2672 43.0702 39.2672 45.3034V48.0045H17.7265V45.3034C17.7265 43.0702 19.5275 41.2592 21.752 41.2519C20.0364 39.5341 19.7218 36.5492 21.7316 34.5331L24.4579 31.7982C25.1311 31.1229 25.1311 30.4476 25.1311 30.4476V25.0455H24.4579C22.9708 25.0455 21.7653 23.8363 21.7653 22.3445C21.7653 20.8527 22.9708 19.6434 24.4579 19.6434H24.9348C23.8168 18.6536 23.1116 17.2053 23.1116 15.5918C23.1116 12.6083 25.5227 10.1897 28.4968 10.1897C31.4709 10.1897 33.882 12.6083 33.882 15.5918Z" fill="#FAF5CC"/>
</svg>
