<svg width="74" height="26" viewBox="0 0 74 26" fill="none" xmlns="http://www.w3.org/2000/svg">
<path d="M2.74408 24.056L0.152079 21.584V15.68L2.74408 13.328V24.056ZM2.67208 1.76003V12.488L0.0800781 10.16V4.23203L2.67208 1.76003ZM20.2594 24.056L17.6674 21.584V15.68L20.2594 13.328V24.056ZM10.8274 14.192C10.2674 13.744 9.69938 13.304 9.12338 12.872L10.8274 11.6H17.3794L19.0594 12.872L17.3794 14.192H10.8274ZM7.97138 12.488V1.76003L10.5634 4.08803V10.04L7.97138 12.488ZM20.1874 1.76003V12.488L17.5954 10.16V4.23203L20.1874 1.76003ZM26.2787 25.112L28.7507 22.52H34.6787L37.0067 25.112H26.2787ZM25.5587 13.328L28.1507 15.824V21.704L25.5587 24.056V13.328ZM37.7747 24.056L35.1827 21.584V15.68L37.7747 13.328V24.056ZM26.2547 0.728027H36.9827L34.6067 3.32003H28.7267L26.2547 0.728027ZM25.4867 12.488V1.76003L28.0787 4.08803V10.04L25.4867 12.488ZM37.7027 1.76003V12.488L35.1107 10.16V4.23203L37.7027 1.76003ZM39.546 21.56H42.57V24.632H39.546V21.56ZM56.0007 24.056L53.4087 21.584V15.68L56.0007 13.328V24.056ZM55.9287 1.76003V12.488L53.3367 10.16V4.23203L55.9287 1.76003ZM62.02 25.112L64.492 22.52H70.42L72.748 25.112H62.02ZM73.516 24.056L70.924 21.584V15.68L73.516 13.328V24.056ZM64.084 14.192C63.524 13.744 62.956 13.304 62.38 12.872L64.084 11.6H70.636L72.316 12.872L70.636 14.192H64.084ZM61.996 0.728027H72.724L70.348 3.32003H64.468L61.996 0.728027ZM61.228 12.488V1.76003L63.82 4.08803V10.04L61.228 12.488Z" fill="#383837"/>
</svg>
