<svg width="71" height="71" viewBox="0 0 71 71" fill="none" xmlns="http://www.w3.org/2000/svg">
<g clip-path="url(#clip0_9_1330)">
<path d="M35.5003 0C15.9257 0 0.000732422 15.9252 0.000732422 35.5001C0.000732422 55.0751 15.9257 71 35.5003 71C55.0749 71 70.9999 55.0751 70.9999 35.5001C71 15.9252 55.0749 0 35.5003 0ZM35.5003 66.402C18.4609 66.402 4.59869 52.5395 4.59869 35.5001C4.59869 18.4605 18.461 4.59795 35.5003 4.59795C52.5393 4.59795 66.4019 18.4605 66.4019 35.5001C66.4019 52.5394 52.5394 66.402 35.5003 66.402ZM47.5609 25.1454H47.841V23.7884H48.346V23.5488H47.0571V23.7884H47.5609L47.5609 25.1454ZM48.7929 23.9117H48.7981L49.2409 25.1454H49.4691L49.9118 23.9117H49.9181V25.1454H50.1812V23.5489H49.7945L49.3665 24.7977H49.3591L48.9207 23.5489H48.5277V25.1454H48.793L48.7929 23.9117ZM40.7306 23.5474H23.2665L20.6168 27.8058H38.0607L40.7306 23.5474ZM44.2996 23.5881L33.6234 40.588H21.781L24.5132 36.3261H31.6109L34.3222 32.0662H17.9135L15.2027 36.3261H19.09L13.6966 44.8352H36.2047L44.5182 31.7244L47.5494 36.326H44.8162L42.2277 40.588H50.3215L53.132 44.8352H58.2951L44.2996 23.5881Z" fill="#E6DDAB"/>
</g>
<defs>
<clipPath id="clip0_9_1330">
<rect width="71" height="71" fill="white"/>
</clipPath>
</defs>
</svg>
