<svg width="62" height="62" viewBox="0 0 62 62" fill="none" xmlns="http://www.w3.org/2000/svg">
<path d="M9.35216 0.400024C4.29521 0.400024 0.223999 4.46764 0.223999 9.52012V52.0799C0.223999 57.1324 4.29521 61.2 9.35216 61.2H19.8355C19.8766 60.6038 20.116 59.6563 21.2613 59.6563C22.8065 59.6563 23.163 58.9438 23.163 58.2313L23.0442 52.2938C14.6055 54.1938 12.8226 48.9688 12.8226 48.9688C11.3964 45.4063 9.49469 44.575 9.49469 44.575C6.64217 42.675 9.61355 42.675 9.61355 42.675C12.7038 42.9125 14.3677 45.7625 14.3677 45.7625C16.9826 50.3938 21.3802 49.0875 23.163 48.375C23.4007 46.3563 24.2327 45.05 25.0647 44.2188C18.29 43.5063 11.2775 40.8938 11.2775 29.2563C11.2775 25.9313 12.4661 23.2 14.3677 21.0625C14.0112 20.35 13.0603 17.2625 14.7243 13.1063C14.7243 13.1063 17.2203 12.275 23.0442 16.1938C28.0361 14.7688 33.2657 14.7688 38.2576 16.1938C44.0815 12.275 46.5775 13.1063 46.5775 13.1063C48.2414 17.2625 47.2906 20.35 46.934 21.0625C48.8357 23.2 50.0243 25.9313 50.0243 29.2563C50.0243 40.8938 42.8929 43.5063 36.1182 44.2188C37.3068 45.1688 38.2576 47.0688 38.2576 49.9188L38.1388 58.2313C38.1388 58.9438 38.4953 59.6563 40.0404 59.6563C41.1858 59.6563 41.4252 60.6038 41.4662 61.2H51.9496C57.0066 61.2 61.0778 57.1324 61.0778 52.0799V9.52012C61.0778 4.46764 57.0066 0.400024 51.9496 0.400024H9.35216Z" fill="#BEBEC9"/>
</svg>
