<svg width="64" height="65" viewBox="0 0 64 65" fill="none" xmlns="http://www.w3.org/2000/svg">
<path d="M57.9711 29.9812C57.8378 28.6 56.6911 27.5708 55.3311 27.5708H35.1978C33.7311 27.5708 32.5311 28.7895 32.5311 30.2791V34.9104C32.5311 36.4 33.7311 37.6187 35.1978 37.6187H47.2245C46.9311 40.1104 45.3311 43.875 41.7845 46.3937C39.5178 47.9916 36.5044 49.102 32.5311 49.102C32.3444 49.102 32.1844 49.102 31.9978 49.075C25.1978 48.8583 19.4378 44.227 17.3578 37.8625C16.7978 36.1562 16.4778 34.3687 16.4778 32.5C16.4778 30.6312 16.7978 28.8166 17.3312 27.1375C17.4912 26.6499 17.6778 26.1625 17.8912 25.675C20.3445 20.0687 25.7045 16.1145 31.9978 15.925C32.1578 15.8979 32.3444 15.8979 32.5311 15.8979C36.3444 15.8979 39.1978 17.1708 41.1978 18.5791C42.2378 19.3104 43.6244 19.1479 44.5311 18.2541L48.2378 14.5708C49.4111 13.4062 49.3045 11.4291 47.9711 10.4541C43.7311 7.28535 38.5578 5.41663 32.5311 5.41663C32.3444 5.41663 32.1844 5.41665 31.9978 5.44374C21.7845 5.63332 13.0112 11.6458 8.71784 20.3396C6.9045 24.0229 5.8645 28.1395 5.8645 32.5C5.8645 36.8604 6.9045 40.977 8.71784 44.6604H8.7445C13.0378 53.3541 21.8112 59.3666 31.9978 59.5562C32.1844 59.5833 32.3444 59.5833 32.5311 59.5833C39.7311 59.5833 45.7844 57.1729 50.1844 53.0291C55.2244 48.2895 58.1311 41.3562 58.1311 33.0958C58.1311 31.9312 58.0778 30.9291 57.9711 29.9812Z" fill="#E6DDAB"/>
</svg>
