<svg width="64" height="65" viewBox="0 0 64 65" fill="none" xmlns="http://www.w3.org/2000/svg">
<path d="M57.9714 29.9812C57.838 28.6 56.6914 27.5708 55.3314 27.5708H35.198C33.7314 27.5708 32.5314 28.7895 32.5314 30.2791V34.9104C32.5314 36.4 33.7314 37.6187 35.198 37.6187H47.2247C46.9314 40.1104 45.3314 43.875 41.7847 46.3937C39.518 47.9916 36.5047 49.102 32.5314 49.102C32.3447 49.102 32.1847 49.102 31.998 49.075C25.1981 48.8583 19.4381 44.227 17.3581 37.8625C16.7981 36.1562 16.4781 34.3687 16.4781 32.5C16.4781 30.6312 16.7981 28.8166 17.3314 27.1375C17.4914 26.6499 17.6781 26.1625 17.8914 25.675C20.3447 20.0687 25.7047 16.1145 31.998 15.925C32.158 15.8979 32.3447 15.8979 32.5314 15.8979C36.3447 15.8979 39.198 17.1708 41.198 18.5791C42.238 19.3104 43.6247 19.1479 44.5314 18.2541L48.238 14.5708C49.4114 13.4062 49.3047 11.4291 47.9714 10.4541C43.7314 7.28535 38.558 5.41663 32.5314 5.41663C32.3447 5.41663 32.1847 5.41665 31.998 5.44374C21.7847 5.63332 13.0114 11.6458 8.71808 20.3396C6.90475 24.0229 5.86475 28.1395 5.86475 32.5C5.86475 36.8604 6.90475 40.977 8.71808 44.6604H8.74475C13.0381 53.3541 21.8114 59.3666 31.998 59.5562C32.1847 59.5833 32.3447 59.5833 32.5314 59.5833C39.7314 59.5833 45.7847 57.1729 50.1847 53.0291C55.2247 48.2895 58.1314 41.3562 58.1314 33.0958C58.1314 31.9312 58.078 30.9291 57.9714 29.9812Z" fill="#2E2E30"/>
</svg>
