<svg width="61" height="61" viewBox="0 0 61 61" fill="none" xmlns="http://www.w3.org/2000/svg">
<path fill-rule="evenodd" clip-rule="evenodd" d="M12 0C5.37258 0 0 5.37258 0 12V49C0 55.6274 5.37258 61 12 61H49C55.6274 61 61 55.6274 61 49V12C61 5.37258 55.6274 0 49 0H12ZM27.3228 17.8742C28.0841 18.4152 29.0407 18.6858 30.1925 18.6858C31.6176 18.6858 32.7889 18.2799 33.7064 17.4682C34.6435 16.6373 35.112 15.5744 35.112 14.2797C35.112 13.2361 34.7216 12.4437 33.9407 11.9026C33.1794 11.3615 32.2228 11.0909 31.071 11.0909C30.173 11.0909 29.3433 11.2746 28.5819 11.6417C27.8401 12.0089 27.2544 12.5307 26.825 13.2071C26.3955 13.8641 26.1807 14.6178 26.1807 15.4681C26.1807 16.5117 26.5614 17.3137 27.3228 17.8742ZM25.9757 47.8766C25.312 48.1857 24.3554 48.466 23.1061 48.7173V50.8333H37.8939V48.7173C36.586 48.4854 35.6099 48.2051 34.9656 47.8766C34.3214 47.5287 33.9993 47.2195 33.9993 46.949V23.005H32.1252C29.6459 23.9133 26.6395 24.609 23.1061 25.0921V27.1213C24.3554 27.2372 25.2339 27.4015 25.7414 27.6141C26.2686 27.8266 26.6004 28.1552 26.7372 28.5996C26.8933 29.0441 26.9714 29.7881 26.9714 30.8317V32.0492V46.949C26.9714 47.2388 26.6395 47.548 25.9757 47.8766Z" fill="#BEBEC9"/>
</svg>
