<svg width="57" height="58" viewBox="0 0 57 58" fill="none" xmlns="http://www.w3.org/2000/svg">
<path fill-rule="evenodd" clip-rule="evenodd" d="M12.0972 0.509277C5.46975 0.509277 0.097168 5.88187 0.097168 12.5093V45.5556C0.097168 52.183 5.46975 57.5556 12.0972 57.5556H44.9646C51.592 57.5556 56.9646 52.183 56.9646 45.5556V12.5093C56.9646 5.88186 51.592 0.509277 44.9646 0.509277H12.0972ZM25.5689 17.2249C26.2786 17.7309 27.1705 17.984 28.2442 17.984C29.5728 17.984 30.6648 17.6044 31.5201 16.8453C32.3937 16.0682 32.8304 15.0743 32.8304 13.8634C32.8304 12.8875 32.4665 12.1465 31.7385 11.6404C31.0288 11.1344 30.1369 10.8813 29.0632 10.8813C28.226 10.8813 27.4525 11.0531 26.7428 11.3964C26.0512 11.7398 25.5052 12.2278 25.1048 12.8603C24.7045 13.4748 24.5042 14.1796 24.5042 14.9748C24.5042 15.9508 24.8591 16.7008 25.5689 17.2249ZM24.3131 45.2827C23.6943 45.5719 22.8026 45.8339 21.6379 46.0689V48.0479H35.4239V46.0689C34.2046 45.8521 33.2946 45.59 32.694 45.2827C32.0934 44.9574 31.7932 44.6683 31.7932 44.4152V22.0232H30.046C27.7346 22.8726 24.9319 23.5232 21.6379 23.975V25.8727C22.8026 25.9811 23.6216 26.1347 24.0947 26.3336C24.5862 26.5323 24.8955 26.8396 25.023 27.2552C25.1685 27.6709 25.2414 28.3667 25.2414 29.3426V30.4812V44.4152C25.2414 44.6863 24.9319 44.9755 24.3131 45.2827Z" fill="#FAF5CC"/>
</svg>
