<svg width="61" height="61" viewBox="0 0 61 61" fill="none" xmlns="http://www.w3.org/2000/svg">
<path fill-rule="evenodd" clip-rule="evenodd" d="M16 0C7.16344 0 0 7.16344 0 16V45C0 53.8366 7.16344 61 16 61H45C53.8366 61 61 53.8366 61 45V16C61 7.16344 53.8366 0 45 0H16ZM32.0182 9.24242H28.9814V16.8344H32.0182V9.24242ZM39.1348 19.7185L44.458 14.3952L46.6052 16.5423L41.2819 21.8656L39.1348 19.7185ZM51.7575 28.9816H44.1655V32.0184H51.7575V28.9816ZM39.1348 41.2815L41.2819 39.1344L46.6052 44.4577L44.458 46.6048L39.1348 41.2815ZM32.0182 44.1656H28.9814V51.7575H32.0182V44.1656ZM14.395 44.4577L19.7183 39.1345L21.8654 41.2816L16.5421 46.6048L14.395 44.4577ZM16.8342 28.9816H9.24219V32.0184H16.8342V28.9816ZM14.395 16.5423L16.5421 14.3952L21.8654 19.7185L19.7183 21.8656L14.395 16.5423ZM33.8743 25.45C32.8756 24.7826 31.7013 24.4264 30.5 24.4264C28.8898 24.4282 27.346 25.0687 26.2073 26.2073C25.0688 27.346 24.4283 28.8897 24.4265 30.5C24.4265 31.7013 24.7827 32.8755 25.4501 33.8743C26.1174 34.8731 27.066 35.6516 28.1758 36.1113C29.2856 36.571 30.5068 36.6913 31.685 36.4569C32.8631 36.2225 33.9453 35.6441 34.7947 34.7947C35.6442 33.9453 36.2226 32.8631 36.4569 31.6849C36.6913 30.5068 36.571 29.2855 36.1113 28.1758C35.6516 27.0659 34.8732 26.1174 33.8743 25.45ZM25.4386 22.925C26.9368 21.9239 28.6982 21.3896 30.5 21.3896C32.9163 21.3896 35.2336 22.3495 36.9421 24.058C38.6506 25.7665 39.6105 28.0838 39.6105 30.5C39.6105 32.3019 39.0762 34.0633 38.0751 35.5615C37.074 37.0597 35.6512 38.2274 33.9864 38.9169C32.3217 39.6065 30.49 39.7868 28.7227 39.4354C26.9555 39.0838 25.3321 38.2162 24.058 36.9421C22.7839 35.6679 21.9162 34.0446 21.5647 32.2773C21.2132 30.5101 21.3936 28.6783 22.0832 27.0136C22.7727 25.3489 23.9404 23.9261 25.4386 22.925Z" fill="#BEBEC9"/>
</svg>
